# xmcd
#
# Track frame offsets: 
#        186
#        27029
#        54635
#        71910
#        94295
#        115386
#        138447
#        174033
#
# Disc length: 4440 seconds
#
# Revision: 0
# Processed by: cddbd v1.5.2PL0 Copyright (c) Steve Scherf et al.
# Submitted via: ExactAudioCopy v1.0b1
#
DISCID=6b115608
DTITLE=B, B and Q - The Brooklyn, Bronx and Queens Band [2004 Digital Rema
DTITLE=ster]
DYEAR=1981
DGENRE=R&B
TTITLE0=On the beat
TTITLE1=Time for love
TTITLE2=Don't say goodbye
TTITLE3=Starlette
TTITLE4=Mistakes
TTITLE5=Lovin's what we should do
TTITLE6=I'll cut you loose
TTITLE7=Data
EXTD=
EXTT0=
EXTT1=
EXTT2=
EXTT3=
EXTT4=
EXTT5=
EXTT6=
EXTT7=
PLAYORDER=
